<svg width="78" height="80" viewBox="0 0 78 80" fill="none" xmlns="http://www.w3.org/2000/svg">
<circle cx="38.6887" cy="41.3112" r="37.1887" stroke="white" stroke-width="3"/>
<path d="M38.6887 64.3997V41.3113H61.7771L54.913 57.2235L38.6887 64.3997Z" fill="#0066B1"/>
<rect x="41.551" y="64.3574" width="5.43237" height="14.3113" transform="rotate(-114.332 41.551 64.3574)" fill="#0066B1"/>
<rect x="55.3782" y="57.5356" width="5.43237" height="14.3113" transform="rotate(-152.836 55.3782 57.5356)" fill="#0066B1"/>
<path d="M38.8232 18.2229L38.8232 41.3113H15.7348L22.599 25.399L38.8232 18.2229Z" fill="#0066B1"/>
<rect x="35.9609" y="18.2654" width="5.43237" height="14.3113" transform="rotate(65.6682 35.9609 18.2654)" fill="#0066B1"/>
<rect x="22.1338" y="25.0872" width="5.43237" height="14.3113" transform="rotate(27.1636 22.1338 25.0872)" fill="#0066B1"/>
<circle cx="38.3767" cy="41.6233" r="21.9004" stroke="white" stroke-width="3"/>
<path d="M18.6014 26.5489L11.7125 18.4086L14.5578 15.9884C15.5434 15.1501 16.4519 14.7043 17.2832 14.651C18.1113 14.5941 18.8345 14.9309 19.4527 15.6614C19.7902 16.0602 19.986 16.4995 20.0401 16.9791C20.091 17.455 19.9942 17.9188 19.7496 18.3705C20.2544 18.1205 20.76 18.0527 21.2661 18.167C21.776 18.2782 22.2249 18.563 22.6129 19.0215C23.2753 19.8042 23.5276 20.6088 23.3699 21.4353C23.2121 22.2618 22.6752 23.071 21.7591 23.863L18.6014 26.5489ZM17.2754 21.5807L19.1349 23.7779L20.5687 22.5583C20.9629 22.223 21.1909 21.8688 21.2526 21.4958C21.3149 21.1159 21.2057 20.7601 20.925 20.4284C20.2941 19.6829 19.589 19.632 18.8097 20.2757L17.2754 21.5807ZM16.2724 20.3954L17.5109 19.3419C18.3426 18.6089 18.4793 17.9125 17.921 17.2528C17.6087 16.8838 17.2769 16.7109 16.9255 16.7341C16.5747 16.7504 16.1687 16.9547 15.7075 17.347L14.536 18.3435L16.2724 20.3954Z" fill="white"/>
<path d="M35.418 6.86162L38.2295 14.5686L40.8816 6.80767L43.7672 6.77917L43.8669 17.4428L41.6624 17.4645L41.6352 14.5496L41.8079 9.51594L39.0039 17.4908L37.4952 17.5057L34.55 9.59493L34.8167 14.617L34.8439 17.5319L32.6468 17.5536L32.5471 6.88996L35.418 6.86162Z" fill="white"/>
<path d="M60.5582 24.768L66.9507 20.4413L68.4902 21.9988L59.2614 27.8318L57.7065 26.2587L61.5473 19.9967L55.2659 23.7897L53.7109 22.2166L59.6135 13.0186L61.153 14.5761L56.7945 20.9395L63.4031 16.8524L64.7109 18.1754L60.5582 24.768Z" fill="white"/>
</svg>
