<svg width="32" height="32" viewBox="0 0 32 32" fill="none" xmlns="http://www.w3.org/2000/svg">
<rect x="1" y="1" width="30" height="30" rx="4" stroke="black" stroke-width="2"/>
<path d="M16.7832 31H15.7832V32H16.7832V31ZM16.7832 18.2559H17.7832V17.2559H16.7832V18.2559ZM14.4248 18.2559H13.4248V19.2559H14.4248V18.2559ZM14.4248 15.1504V14.1504H13.4248V15.1504H14.4248ZM16.7832 15.1504V16.1504H17.7832V15.1504H16.7832ZM18.3066 9.67188L18.9997 10.3927L18.9999 10.3926L18.3066 9.67188ZM24.752 8.48535L25.7519 8.49874L25.7627 7.69162L24.976 7.51077L24.752 8.48535ZM24.708 11.7666L24.4655 12.7367L25.691 13.0431L25.7079 11.78L24.708 11.7666ZM21.0312 15.1504H20.0312V16.1504H21.0312V15.1504ZM24.1807 15.1504H25.1807V14.1504H24.1807V15.1504ZM24.1807 18.2559V19.2559H25.1807V18.2559H24.1807ZM21.0312 18.2559V17.2559H20.0312V18.2559H21.0312ZM21.0312 31V32H22.0312V31H21.0312ZM17.7832 31V18.2559H15.7832V31H17.7832ZM16.7832 17.2559H14.4248V19.2559H16.7832V17.2559ZM15.4248 18.2559V15.1504H13.4248V18.2559H15.4248ZM14.4248 16.1504H16.7832V14.1504H14.4248V16.1504ZM17.7832 15.1504V13.8027H15.7832V15.1504H17.7832ZM17.7832 13.8027C17.7832 12.222 18.2286 11.1342 18.9997 10.3927L17.6135 8.95104C16.3534 10.1627 15.7832 11.8287 15.7832 13.8027H17.7832ZM18.9999 10.3926C19.7895 9.63307 20.9432 9.19238 22.5986 9.19238V7.19238C20.5822 7.19238 18.8746 7.73803 17.6134 8.95117L18.9999 10.3926ZM22.5986 9.19238C23.0822 9.19238 23.7198 9.27417 24.5279 9.45993L24.976 7.51077C24.0848 7.30591 23.2869 7.19238 22.5986 7.19238V9.19238ZM23.752 8.47196L23.7081 11.7532L25.7079 11.78L25.7519 8.49874L23.752 8.47196ZM24.9505 10.7965C24.4951 10.6826 23.9786 10.6348 23.4189 10.6348V12.6348C23.8749 12.6348 24.2178 12.6748 24.4655 12.7367L24.9505 10.7965ZM23.4189 10.6348C22.4841 10.6348 21.5969 10.8529 20.9438 11.466C20.2788 12.0902 20.0312 12.958 20.0312 13.876H22.0312C22.0312 13.2998 22.1817 13.047 22.3126 12.9242C22.4553 12.7902 22.762 12.6348 23.4189 12.6348V10.6348ZM20.0312 13.876V15.1504H22.0312V13.876H20.0312ZM21.0312 16.1504H24.1807V14.1504H21.0312V16.1504ZM23.1807 15.1504V18.2559H25.1807V15.1504H23.1807ZM24.1807 17.2559H21.0312V19.2559H24.1807V17.2559ZM20.0312 18.2559V31H22.0312V18.2559H20.0312ZM21.0312 30H16.7832V32H21.0312V30Z" fill="black"/>
</svg>
