<svg width="203" height="192" viewBox="0 0 203 192" fill="none" xmlns="http://www.w3.org/2000/svg">
<path d="M185.504 77.0417C186.647 77.8174 188.202 77.5205 188.976 76.3786L201.589 57.7693C202.362 56.6273 202.063 55.0728 200.919 54.2971C199.776 53.5214 198.221 53.8183 197.447 54.9602L186.236 71.5018L169.67 60.2655C168.526 59.4898 166.972 59.7867 166.198 60.9286C165.424 62.0706 165.723 63.6252 166.867 64.4009L185.504 77.0417ZM13.9537 88.4567C17.5684 37.7985 55.6682 11.8619 95.3395 9.93655C135.104 8.00663 175.731 30.2114 184.45 75.443L189.36 74.5051C180.054 26.2277 136.679 2.92462 95.0884 4.94319C53.4044 6.96627 12.7944 34.4345 8.96565 88.0925L13.9537 88.4567Z" fill="#1C6AD3"/>
<path d="M16.178 112.409C14.9989 111.688 13.4603 112.058 12.7415 113.236L1.02809 132.425C0.309305 133.602 0.682455 135.141 1.86155 135.862C3.04065 136.582 4.57919 136.212 5.29799 135.034L15.7099 117.977L32.7895 128.415C33.9686 129.136 35.5071 128.765 36.2259 127.588C36.9447 126.41 36.5716 124.872 35.3925 124.151L16.178 112.409ZM187.834 100.983C182.554 153.355 145.648 180.056 107.229 182.028C68.7292 184.005 28.7541 161.161 17.3064 113.956L12.4465 115.126C24.5227 164.923 66.8587 189.107 107.494 187.021C148.211 184.931 187.266 156.479 192.81 101.492L187.834 100.983Z" fill="#1C6AD3"/>
</svg>
